<svg width="21" height="20" viewBox="0 0 21 20" fill="none" xmlns="http://www.w3.org/2000/svg">
<path fill-rule="evenodd" clip-rule="evenodd" d="M17.596 2.87213C15.8828 1.18376 13.6144 0.170515 11.2099 0.0196499C8.80538 -0.131215 6.42736 0.590497 4.51528 2.05141C2.60319 3.51233 1.2863 5.61371 0.80793 7.96717C0.329608 10.3207 0.722106 12.7672 1.91299 14.8546L0.5 20L5.78246 18.6193C7.24315 19.4131 8.88036 19.829 10.5441 19.8288C12.5136 19.8253 14.4379 19.2406 16.0745 18.1486C17.7111 17.0567 18.9867 15.5062 19.7405 13.6927C20.4943 11.8792 20.6926 9.88384 20.3103 7.95817C19.928 6.03256 18.9823 4.26284 17.5923 2.87213H17.596ZM10.5478 18.1517C9.06475 18.1517 7.60897 17.7543 6.33291 17.0012L6.02999 16.817L2.89005 17.6362L3.72857 14.5969L3.5328 14.2858C2.55664 12.7358 2.12487 10.9066 2.30539 9.08539C2.48597 7.26426 3.26856 5.55452 4.53017 4.22496C5.79184 2.89541 7.461 2.02141 9.27532 1.74034C11.0896 1.45928 12.9462 1.78709 14.5532 2.67224C16.1602 3.55739 17.4266 4.94971 18.1532 6.63034C18.8798 8.31093 19.0255 10.1846 18.5673 11.9567C18.1092 13.7289 17.0732 15.299 15.6223 16.4204C14.1713 17.5417 12.3876 18.1508 10.5515 18.1517H10.5478ZM15.0822 11.9699C14.8347 11.8447 13.6046 11.2446 13.3811 11.1618C13.1576 11.0789 12.9877 11.0384 12.827 11.287C12.6663 11.5355 12.1842 12.0933 12.0383 12.2589C11.8924 12.4246 11.7483 12.443 11.499 12.3215C10.7665 12.0321 10.0898 11.6185 9.49868 11.0992C8.95465 10.597 8.48787 10.0176 8.11342 9.37975C7.96937 9.13123 8.09863 8.99685 8.22237 8.87351C8.34611 8.75018 8.47171 8.5845 8.59179 8.43907C8.69402 8.31368 8.77739 8.17415 8.83928 8.02487C8.87259 7.95652 8.88819 7.88093 8.88463 7.80504C8.88107 7.72915 8.85849 7.65536 8.81897 7.59037C8.75802 7.46524 8.26485 6.24468 8.05248 5.7495C7.84005 5.25426 7.64428 5.3316 7.49837 5.32425C7.35245 5.31685 7.18808 5.32425 7.0218 5.32425C6.89575 5.3276 6.77171 5.35694 6.65759 5.41054C6.54343 5.46408 6.44171 5.54062 6.35874 5.63536C6.078 5.89778 5.85479 6.21529 5.70316 6.56795C5.55152 6.92055 5.47478 7.30065 5.47774 7.68426C5.47774 8.90666 6.36983 10.0775 6.49357 10.2505C6.61731 10.4236 8.25011 12.9235 10.7417 13.9986C11.2048 14.1981 11.6783 14.3726 12.1602 14.5214C12.6682 14.6749 13.2051 14.7082 13.7283 14.619C14.2067 14.5472 15.2059 14.0189 15.4091 13.439C15.6123 12.8591 15.616 12.362 15.5551 12.2589C15.4941 12.1559 15.3389 12.0933 15.0822 11.9699Z" fill="white"/>
</svg>
